<svg width="800" height="600" viewBox="0 0 800 600" fill="none" xmlns="http://www.w3.org/2000/svg" role="img" aria-label="Ilustración de closet a medida">
  <defs>
    <linearGradient id="fondoClo" x1="0" y1="0" x2="0" y2="600" gradientUnits="userSpaceOnUse">
      <stop offset="0" stop-color="#FFF8E7"/>
      <stop offset="1" stop-color="#F3E3CE"/>
    </linearGradient>
    <linearGradient id="maderaClo" x1="0" y1="0" x2="1" y2="0">
      <stop offset="0" stop-color="#8D6E63"/>
      <stop offset="1" stop-color="#5D4037"/>
    </linearGradient>
  </defs>

  <rect width="800" height="600" fill="url(#fondoClo)"/>

  <g fill="#5D4037" opacity="0.05">
    <path d="M120 90h-3v-8h-2v8h-8v2h8v8h2v-8h3z"/>
    <path d="M690 140h-3v-8h-2v8h-8v2h8v8h2v-8h3z"/>
    <path d="M660 470h-3v-8h-2v8h-8v2h8v8h2v-8h3z"/>
    <path d="M140 480h-3v-8h-2v8h-8v2h8v8h2v-8h3z"/>
  </g>

  <ellipse cx="400" cy="300" rx="240" ry="190" fill="#5D4037" opacity="0.04"/>

  <!-- Cuerpo del armario -->
  <rect x="212" y="118" width="376" height="330" rx="12" fill="url(#maderaClo)"/>
  <rect x="212" y="118" width="376" height="14" rx="7" fill="#A1887F"/>

  <!-- Cuatro puertas -->
  <g fill="#6D4C41" stroke="#4E342E" stroke-width="2">
    <rect x="226" y="144" width="84" height="290" rx="6"/>
    <rect x="316" y="144" width="84" height="290" rx="6"/>
    <rect x="400" y="144" width="84" height="290" rx="6"/>
    <rect x="490" y="144" width="84" height="290" rx="6"/>
  </g>

  <!-- Molduras -->
  <g fill="none" stroke="#8D6E63" stroke-width="2" opacity="0.55">
    <rect x="240" y="162" width="56" height="120" rx="4"/>
    <rect x="330" y="162" width="56" height="120" rx="4"/>
    <rect x="414" y="162" width="56" height="120" rx="4"/>
    <rect x="504" y="162" width="56" height="120" rx="4"/>
    <rect x="240" y="298" width="56" height="120" rx="4"/>
    <rect x="330" y="298" width="56" height="120" rx="4"/>
    <rect x="414" y="298" width="56" height="120" rx="4"/>
    <rect x="504" y="298" width="56" height="120" rx="4"/>
  </g>

  <!-- Manijas -->
  <g fill="#E8DCC8">
    <rect x="298" y="272" width="7" height="40" rx="3.5"/>
    <rect x="321" y="272" width="7" height="40" rx="3.5"/>
    <rect x="472" y="272" width="7" height="40" rx="3.5"/>
    <rect x="495" y="272" width="7" height="40" rx="3.5"/>
  </g>

  <!-- Patas -->
  <rect x="238" y="448" width="18" height="20" rx="5" fill="#4E342E"/>
  <rect x="544" y="448" width="18" height="20" rx="5" fill="#4E342E"/>

  <ellipse cx="400" cy="476" rx="215" ry="15" fill="#5D4037" opacity="0.12"/>

  <g>
    <rect x="272" y="514" width="256" height="42" rx="21" fill="#5D4037"/>
    <text x="400" y="541" font-family="Poppins, Verdana, sans-serif" font-size="19" font-weight="600" fill="#FFF8E7" text-anchor="middle">Closets a tu medida</text>
  </g>
</svg>
